<svg width="3319" height="803" viewBox="0 0 3319 803" fill="none" xmlns="http://www.w3.org/2000/svg">
    <g clip-path="url(#clip0_4_2)">
        <path d="M3318.97 0H0V802.668H3318.97V0Z" fill="#0A1D34" />
        <path d="M494.352 485.394C450.943 513.644 429.584 521.913 399.956 521.913C379.285 521.913 359.992 516.4 341.389 505.376C304.871 483.327 280.066 443.364 280.066 402.023C280.066 379.974 285.578 359.303 296.602 340.7C317.962 303.493 358.614 281.444 399.956 281.444C426.139 281.444 449.565 289.023 469.547 303.493C472.992 305.56 477.126 308.316 481.949 313.139L492.285 320.718L538.449 266.286L530.87 258.706C526.047 253.883 519.846 249.749 512.266 244.926C479.882 220.121 441.986 207.719 399.956 207.719C348.279 207.719 300.737 227.7 262.84 264.218C226.322 302.804 205.652 350.346 205.652 402.023C205.652 453.699 226.322 502.62 262.84 539.138C299.359 575.656 348.279 596.327 399.956 596.327C437.163 596.327 471.614 585.992 503.998 565.321L490.218 544.65C461.968 563.254 432.34 572.211 399.956 572.211C355.169 572.211 312.45 554.297 280.066 521.913C247.682 489.529 230.456 446.809 230.456 402.023C230.456 357.236 247.682 315.206 280.066 282.822C312.45 249.749 355.169 232.523 399.956 232.523C433.718 232.523 466.102 242.859 498.486 264.218L503.998 269.042L488.84 286.267C486.772 285.578 485.394 284.889 484.016 283.511C458.523 266.286 430.273 257.328 399.956 257.328C373.084 257.328 348.968 263.529 327.608 275.932C284.2 301.426 255.261 351.724 255.261 402.023C255.261 426.139 262.151 450.254 275.243 472.992C302.115 519.156 351.035 547.406 399.956 547.406C432.34 547.406 458.523 537.76 497.797 512.955L536.382 570.144C486.083 603.217 446.809 616.998 399.956 616.998C361.371 616.998 325.541 607.351 292.468 588.059C225.633 549.473 184.292 479.193 184.292 402.023C184.292 363.438 193.938 327.608 213.231 293.846C251.816 227.7 322.785 186.359 399.956 186.359C454.388 186.359 506.065 206.341 545.339 242.859L549.473 246.304L554.986 251.816L572.211 233.902L562.565 224.255C518.467 184.981 460.59 162.243 399.956 162.243C356.547 162.243 316.584 172.579 280.066 193.938C207.03 235.969 159.487 316.584 159.487 402.023C159.487 444.053 170.512 484.016 192.56 521.224C235.969 595.638 313.828 642.491 399.956 642.491C454.388 642.491 499.864 625.266 561.187 583.236L570.833 577.034L505.376 478.504L494.352 485.394ZM855.743 292.468L829.561 333.121L732.409 184.981H758.591L829.561 295.224L844.03 271.798L772.372 160.176H686.933L829.561 378.596L968.743 160.176H939.115L856.433 291.09L855.743 292.468ZM701.403 617.687H677.976L817.158 397.889L665.574 160.865H635.946L787.53 398.578L632.501 643.18L714.494 642.491L1006.64 185.67H1031.44L868.146 441.986L970.121 601.839H999.749L897.085 441.986L1076.92 160.865H993.548L701.403 617.687ZM922.579 444.053L1034.89 617.687H956.341L854.365 462.657L738.61 642.491H768.238L855.054 508.132L942.56 642.491H1080.36L939.804 424.071L937.737 420.626L922.579 444.053ZM1182.68 159.487H1208.18V616.998H1276.39V450.943H1361.14C1392.15 450.943 1417.64 444.053 1439 429.584C1472.07 409.602 1489.3 368.95 1489.3 315.895C1489.3 230.456 1441.07 184.981 1352.18 184.981H1253.65V356.547H1341.85C1377.68 356.547 1391.46 345.523 1391.46 315.895C1391.46 291.779 1379.74 280.066 1355.63 280.066H1303.26V335.877L1277.77 336.566V255.95H1355.63C1393.52 255.95 1414.88 277.999 1414.88 315.895C1414.88 359.992 1390.77 382.041 1341.85 382.041H1230.23V159.487H1352.18C1452.09 159.487 1513.41 217.365 1513.41 315.895C1513.41 417.87 1457.6 476.437 1361.14 476.437H1301.89V642.491H1182.68V159.487V159.487ZM1230.23 404.779H1345.98C1410.06 404.779 1441.07 377.218 1441.07 319.34C1441.07 264.907 1411.44 233.212 1363.9 233.212H1277.77V208.408H1363.9C1383.19 208.408 1401.1 212.542 1416.95 221.499C1449.34 238.725 1465.87 273.176 1465.87 319.34C1465.87 390.998 1425.91 428.895 1345.98 428.895H1253.65V601.15H1230.23V404.779V404.779ZM1654.32 160.176H1726.67V596.327H1701.86V184.981H1679.12V617.687H1748.72V160.176H1773.52V642.491H1654.32V160.176V160.176ZM2052.92 249.749H2217.59V184.292H1924.76V205.652H2194.17V230.456H1899.96V159.487H2242.4V274.554H2077.72V597.016H2052.92V249.749ZM2006.75 274.554H1899.96V249.749H2031.56V616.998H2100.46V295.913H2125.27V642.491H2006.75V274.554ZM2566.58 292.468L2540.4 333.121L2443.25 184.981H2469.43L2540.4 295.224L2554.87 271.798L2483.21 160.176H2397.77L2540.4 378.596L2679.58 160.176H2649.96L2567.27 291.09L2566.58 292.468ZM2412.24 617.687H2388.82L2528 397.889L2376.41 160.865H2346.79L2498.37 398.578L2343.34 643.18L2425.33 642.491L2717.48 185.67H2742.28L2578.99 441.986L2680.96 601.839H2710.59L2607.93 441.986L2787.76 160.865H2704.39L2412.24 617.687ZM2633.42 444.053L2745.73 617.687H2667.18L2565.21 462.657L2449.45 642.491H2479.08L2565.9 508.132L2653.4 642.491H2791.21L2650.64 424.071L2648.58 420.626L2633.42 444.053ZM2883.19 159.487H2954.16V597.016H2928.66V184.292H2907.99V617.687H3134.68V551.541H3022.37V526.736H3159.49V642.491H2883.19V159.487V159.487ZM2976.9 159.487H3001.7V571.522H3112.63V597.016H2976.9V159.487Z" fill="url(#paint0_linear_4_2)" />
    </g>
    <defs>
        <linearGradient id="paint0_linear_4_2" x1="159.487" y1="159.487" x2="3159.49" y2="159.487" gradientUnits="userSpaceOnUse">
            <stop stop-color="#8F5E25" />
            <stop offset="0.5" stop-color="#FBF4A1" />
            <stop offset="1" stop-color="#8F5E25" />
        </linearGradient>
        <clipPath id="clip0_4_2">
            <rect width="3318.97" height="802.668" fill="white" />
        </clipPath>
    </defs>
</svg>