
        <svg xmlns="http://www.w3.org/2000/svg" xmlns:xlink="http://www.w3.org/1999/xlink" version="1.1" width="3318.9743448816803" 
        height="802.6675219707176" viewBox="0 0 3318.9743448816803 802.6675219707176">
			<rect fill="#060606" width="3318.9743448816803" height="802.6675219707176"/>
			<g transform="scale(15.94871724408402) translate(10, 10)">
				<defs id="SvgjsDefs7950"><linearGradient id="SvgjsLinearGradient7953"><stop id="SvgjsStop7954" stop-color="#8f5e25" offset="0"></stop><stop id="SvgjsStop7955" stop-color="#fbf4a1" offset="0.5"></stop><stop id="SvgjsStop7956" stop-color="#8f5e25" offset="1"></stop></linearGradient></defs><g id="SvgjsG7951" featureKey="0yvIkK-0" transform="matrix(2.160115957260132,0,0,2.160115957260132,0.12960786433024096,-12.917492482825187)" fill="url(#SvgjsLinearGradient7953)"><path d="M9.66 15.440000000000001 c-1.26 0.82 -1.88 1.06 -2.74 1.06 c-0.6 0 -1.16 -0.16 -1.7 -0.48 c-1.06 -0.64 -1.78 -1.8 -1.78 -3 c0 -0.64 0.16 -1.24 0.48 -1.78 c0.62 -1.08 1.8 -1.72 3 -1.72 c0.76 0 1.44 0.22 2.02 0.64 c0.1 0.06 0.22 0.14 0.36 0.28 l0.3 0.22 l1.34 -1.58 l-0.22 -0.22 c-0.14 -0.14 -0.32 -0.26 -0.54 -0.4 c-0.94 -0.72 -2.04 -1.08 -3.26 -1.08 c-1.5 0 -2.88 0.58 -3.98 1.64 c-1.06 1.12 -1.66 2.5 -1.66 4 s0.6 2.92 1.66 3.98 s2.48 1.66 3.98 1.66 c1.08 0 2.08 -0.3 3.02 -0.9 l-0.4 -0.6 c-0.82 0.54 -1.68 0.8 -2.62 0.8 c-1.3 0 -2.54 -0.52 -3.48 -1.46 s-1.44 -2.18 -1.44 -3.48 s0.5 -2.52 1.44 -3.46 c0.94 -0.96 2.18 -1.46 3.48 -1.46 c0.98 0 1.92 0.3 2.86 0.92 l0.16 0.14 l-0.44 0.5 c-0.06 -0.02 -0.1 -0.04 -0.14 -0.08 c-0.74 -0.5 -1.56 -0.76 -2.44 -0.76 c-0.78 0 -1.48 0.18 -2.1 0.54 c-1.26 0.74 -2.1 2.2 -2.1 3.66 c0 0.7 0.2 1.4 0.58 2.06 c0.78 1.34 2.2 2.16 3.62 2.16 c0.94 0 1.7 -0.28 2.84 -1 l1.12 1.66 c-1.46 0.96 -2.6 1.36 -3.96 1.36 c-1.12 0 -2.16 -0.28 -3.12 -0.84 c-1.94 -1.12 -3.14 -3.16 -3.14 -5.4 c0 -1.12 0.28 -2.16 0.84 -3.14 c1.12 -1.92 3.18 -3.12 5.42 -3.12 c1.58 0 3.08 0.58 4.22 1.64 l0.12 0.1 l0.16 0.16 l0.5 -0.52 l-0.28 -0.28 c-1.28 -1.14 -2.96 -1.8 -4.72 -1.8 c-1.26 0 -2.42 0.3 -3.48 0.92 c-2.12 1.22 -3.5 3.56 -3.5 6.04 c0 1.22 0.32 2.38 0.96 3.46 c1.26 2.16 3.52 3.52 6.02 3.52 c1.58 0 2.9 -0.5 4.68 -1.72 l0.28 -0.18 l-1.9 -2.86 z M20.15 9.84 l-0.76 1.18 l-2.82 -4.3 l0.76 0 l2.06 3.2 l0.42 -0.68 l-2.08 -3.24 l-2.48 0 l4.14 6.34 l4.04 -6.34 l-0.86 0 l-2.4 3.8 z M15.67 19.28 l-0.68 0 l4.04 -6.38 l-4.4 -6.88 l-0.86 0 l4.4 6.9 l-4.5 7.1 l2.38 -0.02 l8.48 -13.26 l0.72 0 l-4.74 7.44 l2.96 4.64 l0.86 0 l-2.98 -4.64 l5.22 -8.16 l-2.42 0 z M22.09 14.24 l3.26 5.04 l-2.28 0 l-2.96 -4.5 l-3.36 5.22 l0.86 0 l2.52 -3.9 l2.54 3.9 l4 0 l-4.08 -6.34 l-0.06 -0.1 z M29.64 5.98 l0.74 0 l0 13.28 l1.98 0 l0 -4.82 l2.46 0 c0.9 0 1.64 -0.2 2.26 -0.62 c0.96 -0.58 1.46 -1.76 1.46 -3.3 c0 -2.48 -1.4 -3.8 -3.98 -3.8 l-2.86 0 l0 4.98 l2.56 0 c1.04 0 1.44 -0.32 1.44 -1.18 c0 -0.7 -0.34 -1.04 -1.04 -1.04 l-1.52 0 l0 1.62 l-0.74 0.02 l0 -2.34 l2.26 0 c1.1 0 1.72 0.64 1.72 1.74 c0 1.28 -0.7 1.92 -2.12 1.92 l-3.24 0 l0 -6.46 l3.54 0 c2.9 0 4.68 1.68 4.68 4.54 c0 2.96 -1.62 4.66 -4.42 4.66 l-1.72 0 l0 4.82 l-3.46 0 l0 -14.02 z M31.02 13.1 l3.36 0 c1.86 0 2.76 -0.8 2.76 -2.48 c0 -1.58 -0.86 -2.5 -2.24 -2.5 l-2.5 0 l0 -0.72 l2.5 0 c0.56 0 1.08 0.12 1.54 0.38 c0.94 0.5 1.42 1.5 1.42 2.84 c0 2.08 -1.16 3.18 -3.48 3.18 l-2.68 0 l0 5 l-0.68 0 l0 -5.7 z M43.330000000000005 6 l2.1 0 l0 12.66 l-0.72 0 l0 -11.94 l-0.66 0 l0 12.56 l2.02 0 l0 -13.28 l0.72 0 l0 14 l-3.46 0 l0 -14 z M54.900000000000006 8.6 l4.78 0 l0 -1.9 l-8.5 0 l0 0.62 l7.82 0 l0 0.72 l-8.54 0 l0 -2.06 l9.94 0 l0 3.34 l-4.78 0 l0 9.36 l-0.72 0 l0 -10.08 z M53.56 9.32 l-3.1 0 l0 -0.72 l3.82 0 l0 10.66 l2 0 l0 -9.32 l0.72 0 l0 10.06 l-3.44 0 l0 -10.68 z M69.81 9.84 l-0.76 1.18 l-2.82 -4.3 l0.76 0 l2.06 3.2 l0.42 -0.68 l-2.08 -3.24 l-2.48 0 l4.14 6.34 l4.04 -6.34 l-0.86 0 l-2.4 3.8 z M65.33 19.28 l-0.68 0 l4.04 -6.38 l-4.4 -6.88 l-0.86 0 l4.4 6.9 l-4.5 7.1 l2.38 -0.02 l8.48 -13.26 l0.72 0 l-4.74 7.44 l2.96 4.64 l0.86 0 l-2.98 -4.64 l5.22 -8.16 l-2.42 0 z M71.75 14.24 l3.26 5.04 l-2.28 0 l-2.96 -4.5 l-3.36 5.22 l0.86 0 l2.52 -3.9 l2.54 3.9 l4 0 l-4.08 -6.34 l-0.06 -0.1 z M79 5.98 l2.06 0 l0 12.7 l-0.74 0 l0 -11.98 l-0.6 0 l0 12.58 l6.58 0 l0 -1.92 l-3.26 0 l0 -0.72 l3.98 0 l0 3.36 l-8.02 0 l0 -14.02 z M81.72 5.98 l0.72 0 l0 11.96 l3.22 0 l0 0.74 l-3.94 0 l0 -12.7 z"></path></g>
			</g>
		</svg>
	