<svg width="1618" height="803" viewBox="0 0 1618 803" fill="none" xmlns="http://www.w3.org/2000/svg">
<path d="M1618 0H0V803H1618V458.69V0Z" fill="#0A1D34"/>
<path d="M455.865 485.907C412.456 514.157 391.096 522.425 361.469 522.425C340.798 522.425 321.505 516.913 302.902 505.889C266.384 483.84 241.579 443.877 241.579 402.536C241.579 380.487 247.091 359.816 258.115 341.213C279.475 304.006 320.127 281.957 361.469 281.957C387.651 281.957 411.078 289.536 431.06 304.005C434.505 306.073 438.639 308.829 443.462 313.652L453.797 321.231L499.962 266.798L492.383 259.219C487.56 254.396 481.358 250.262 473.779 245.439C441.395 220.634 403.499 208.232 361.469 208.232C309.792 208.232 262.249 228.213 224.353 264.731C187.835 303.316 167.164 350.859 167.164 402.536C167.164 454.212 187.835 503.133 224.353 539.651C260.871 576.169 309.792 596.84 361.469 596.84C398.676 596.84 433.127 586.504 465.511 565.834L451.73 545.163C423.48 563.767 393.853 572.724 361.469 572.724C316.682 572.724 273.963 554.809 241.579 522.425C209.195 490.041 191.969 447.322 191.969 402.536C191.969 357.749 209.195 315.719 241.579 283.335C273.963 250.262 316.682 233.036 361.469 233.036C395.231 233.036 427.615 243.372 459.999 264.731L465.511 269.554L450.352 286.78C448.285 286.091 446.907 285.402 445.529 284.024C420.035 266.798 391.785 257.841 361.469 257.841C334.597 257.841 310.481 264.042 289.121 276.445C245.713 301.938 216.774 352.237 216.774 402.536C216.774 426.651 223.664 450.767 236.756 473.505C263.627 519.669 312.548 547.919 361.469 547.919C393.853 547.919 420.035 538.273 459.31 513.468L497.895 570.657C447.596 603.73 408.322 617.51 361.469 617.51C322.883 617.51 287.054 607.864 253.981 588.572C187.146 549.986 145.805 479.706 145.805 402.536C145.805 363.95 155.451 328.121 174.744 294.359C213.329 228.213 284.298 186.872 361.469 186.872C415.901 186.872 467.578 206.853 506.852 243.372L510.986 246.817L516.498 252.329L533.724 234.414L524.078 224.768C479.98 185.494 422.102 162.756 361.469 162.756C318.06 162.756 278.097 173.091 241.579 194.451C168.542 236.481 121 317.097 121 402.536C121 444.566 132.024 484.529 154.073 521.736C197.481 596.151 275.341 643.004 361.469 643.004C415.901 643.004 461.377 625.779 522.7 583.748L532.346 577.547L466.889 479.017L455.865 485.907ZM817.256 292.981L791.073 333.633L693.921 185.494H720.104L791.073 295.737L805.543 272.311L733.885 160.689H648.446L791.073 379.109L930.256 160.689H900.628L817.945 291.603L817.256 292.981ZM662.916 618.199H639.489L778.671 398.401L627.086 161.378H597.458L749.043 399.091L594.013 643.693L676.007 643.004L968.152 186.183H992.957L829.659 442.499L931.634 602.352H961.262L858.598 442.499L1038.43 161.378H955.061L662.916 618.199ZM884.091 444.566L996.402 618.199H917.853L815.878 463.169L700.123 643.004H729.751L816.567 508.645L904.073 643.004H1041.88L901.317 424.584L899.25 421.139L884.091 444.566ZM1144.2 160H1169.69V617.51H1237.9V451.456H1322.65C1353.66 451.456 1379.15 444.566 1400.51 430.096C1433.59 410.115 1450.81 369.463 1450.81 316.408C1450.81 230.969 1402.58 185.494 1313.7 185.494H1215.17V357.06H1303.36C1339.19 357.06 1352.97 346.036 1352.97 316.408C1352.97 292.292 1341.26 280.579 1317.14 280.579H1264.78V336.39L1239.28 337.079V256.463H1317.14C1355.04 256.463 1376.4 278.512 1376.4 316.408C1376.4 360.505 1352.28 382.554 1303.36 382.554H1191.74V160H1313.7C1413.6 160 1474.93 217.878 1474.93 316.408C1474.93 418.383 1419.12 476.95 1322.65 476.95H1263.4V643.004H1144.2V160ZM1191.74 405.292H1307.5C1371.57 405.292 1402.58 377.731 1402.58 319.853C1402.58 265.42 1372.95 233.725 1325.41 233.725H1239.28V208.921H1325.41C1344.7 208.921 1362.62 213.055 1378.46 222.012C1410.85 239.237 1427.39 273.689 1427.39 319.853C1427.39 391.511 1387.42 429.407 1307.5 429.407H1215.17V601.663H1191.74V405.292Z" fill="url(#paint0_linear_6_45)"/>
<defs>
<linearGradient id="paint0_linear_6_45" x1="-1.51288" y1="160.69" x2="2998.49" y2="160.69" gradientUnits="userSpaceOnUse">
<stop stop-color="#8F5E25"/>
<stop offset="0.5" stop-color="#FBF4A1"/>
<stop offset="1" stop-color="#8F5E25"/>
</linearGradient>
</defs>
</svg>
