<svg width="4239" height="684" viewBox="0 0 4239 684" fill="none" xmlns="http://www.w3.org/2000/svg">
<path d="M473.092 460.438C411.765 500.349 381.588 512.031 339.731 512.031C310.527 512.031 283.271 504.243 256.988 488.668C205.396 457.518 170.352 401.058 170.352 342.652C170.352 311.502 178.14 282.298 193.715 256.015C223.891 203.449 281.324 172.299 339.731 172.299C376.721 172.299 409.818 183.007 438.048 203.449C442.915 206.37 448.756 210.263 455.57 217.078L470.172 227.785L535.392 150.884L524.684 140.176C517.87 133.362 509.109 127.521 498.401 120.707C452.65 85.6629 399.11 68.141 339.731 68.141C266.723 68.141 199.555 96.3708 146.016 147.963C94.4237 202.476 65.2205 269.644 65.2205 342.652C65.2205 415.66 94.4237 484.774 146.016 536.367C197.608 587.959 266.723 617.162 339.731 617.162C392.296 617.162 440.968 602.561 486.72 573.357L467.251 544.154C427.34 570.437 385.482 583.092 339.731 583.092C276.457 583.092 216.104 557.782 170.352 512.031C124.6 466.279 100.264 405.925 100.264 342.652C100.264 279.378 124.6 219.998 170.352 174.246C216.104 127.521 276.457 103.185 339.731 103.185C387.429 103.185 433.181 117.787 478.932 147.963L486.72 154.777L465.304 179.113C462.384 178.14 460.437 177.166 458.49 175.22C422.473 150.884 382.562 138.229 339.731 138.229C301.766 138.229 267.696 146.99 237.519 164.512C176.193 200.529 135.308 271.59 135.308 342.652C135.308 376.722 145.043 410.793 163.538 442.916C201.502 508.137 270.616 548.048 339.731 548.048C385.482 548.048 422.473 534.42 477.959 499.376L532.472 580.172C461.411 626.897 405.924 646.366 339.731 646.366C285.218 646.366 234.599 632.737 187.874 605.481C93.4502 550.968 35.0438 451.677 35.0438 342.652C35.0438 288.139 48.672 237.52 75.9283 189.821C130.441 96.3708 230.705 37.9643 339.731 37.9643C416.632 37.9643 489.64 66.1941 545.126 117.786L550.967 122.654L558.755 130.441L583.091 105.132L569.462 91.5036C507.162 36.0174 425.393 3.89378 339.731 3.89378C278.404 3.89378 221.944 18.4954 170.352 48.6721C67.1674 108.052 0 221.945 0 342.652C0 402.032 15.575 458.491 46.7251 511.057C108.052 616.189 218.051 682.383 339.731 682.383C416.632 682.383 480.879 658.047 567.516 598.667L581.144 589.906L488.667 450.704L473.092 460.438ZM983.661 187.874L946.67 245.307L809.415 36.0174H846.406L946.67 191.768L967.113 158.671L865.875 0.973456H745.168L946.67 309.555L1143.31 0.973456H1101.45L984.635 185.927L983.661 187.874ZM765.611 647.339H732.514L929.149 336.811L714.992 1.9469H673.134L887.291 337.784L668.267 683.356L784.106 682.383L1196.84 36.9908H1231.89L1001.18 399.111L1145.25 624.95H1187.11L1042.07 399.111L1296.14 1.9469H1178.35L765.611 647.339ZM1078.08 402.032L1236.76 647.339H1125.78L981.714 428.315L818.176 682.383H860.034L982.688 492.562L1106.31 682.383H1301L1102.42 373.802L1099.5 368.935L1078.08 402.032ZM1445.56 1.52588e-05H1481.58V646.366H1577.95V411.766H1697.68C1741.48 411.766 1777.5 402.032 1807.68 381.589C1854.4 353.36 1878.74 295.926 1878.74 220.971C1878.74 100.265 1810.6 36.0174 1685.02 36.0174H1545.82V278.404H1670.42C1721.04 278.404 1740.51 262.829 1740.51 220.971C1740.51 186.901 1723.96 170.352 1689.89 170.352H1615.91V249.201L1579.89 250.175V136.282H1689.89C1743.43 136.282 1773.61 167.432 1773.61 220.971C1773.61 283.272 1739.54 314.422 1670.42 314.422H1512.73V1.52588e-05H1685.02C1826.17 1.52588e-05 1912.81 81.7692 1912.81 220.971C1912.81 365.041 1833.96 447.783 1697.68 447.783H1613.96V682.383H1445.56V1.52588e-05V1.52588e-05ZM1512.73 346.545H1676.26C1766.79 346.545 1810.6 307.608 1810.6 225.839C1810.6 148.937 1768.74 104.158 1701.57 104.158H1579.89V69.1144H1701.57C1728.83 69.1144 1754.14 74.9551 1776.53 87.6098C1822.28 111.946 1845.64 160.618 1845.64 225.839C1845.64 327.077 1789.18 380.616 1676.26 380.616H1545.82V623.976H1512.73V346.545V346.545ZM2111.88 0.973456H2214.09V617.162H2179.05V36.0174H2146.92V647.339H2245.24V0.973456H2280.28V682.383H2111.88V0.973456V0.973456ZM2675.01 127.521H2907.67V35.0439H2493.95V65.2206H2874.57V100.265H2458.91V1.52588e-05H2942.71V162.565H2710.06V618.136H2675.01V127.521ZM2609.79 162.565H2458.91V127.521H2644.84V646.366H2742.18V192.742H2777.22V682.383H2609.79V162.565ZM3400.71 187.874L3363.72 245.307L3226.47 36.0174H3263.46L3363.72 191.768L3384.16 158.671L3282.93 0.973456H3162.22L3363.72 309.555L3560.36 0.973456H3518.5L3401.69 185.927L3400.71 187.874ZM3182.66 647.339H3149.57L3346.2 336.811L3132.04 1.9469H3090.19L3304.34 337.784L3085.32 683.356L3201.16 682.383L3613.9 36.9908H3648.94L3418.23 399.111L3562.3 624.95H3604.16L3459.12 399.111L3713.19 1.9469H3595.4L3182.66 647.339ZM3495.14 402.032L3653.81 647.339H3542.83L3398.77 428.315L3235.23 682.383H3277.09L3399.74 492.562L3523.37 682.383H3718.05L3519.47 373.802L3516.55 368.935L3495.14 402.032ZM3848.01 1.52588e-05H3948.27V618.136H3912.26V35.0439H3883.05V647.339H4203.31V553.889H4044.64V518.845H4238.36V682.383H3848.01V1.52588e-05V1.52588e-05ZM3980.4 1.52588e-05H4015.44V582.118H4172.16V618.136H3980.4V1.52588e-05Z" fill="url(#paint0_linear_8_4)"/>
<defs>
<linearGradient id="paint0_linear_8_4" x1="0" y1="1.52588e-05" x2="4238.36" y2="1.52588e-05" gradientUnits="userSpaceOnUse">
<stop stop-color="#8F5E25"/>
<stop offset="0.5" stop-color="#FBF4A1"/>
<stop offset="1" stop-color="#8F5E25"/>
</linearGradient>
</defs>
</svg>
