<svg width="1619" height="804" viewBox="0 0 1619 804" fill="none" xmlns="http://www.w3.org/2000/svg">
<path d="M0 1L1 803.668H1619V419V1H0Z" fill="#0A1D34"/>
<path d="M351.057 249.749H515.733V184.292H222.899V205.652H492.306V230.457H198.094V159.487H540.537V274.554H375.861V597.016H351.057V249.749ZM304.892 274.554H198.094V249.749H329.697V616.998H398.599V295.914H423.404V642.491H304.892V274.554ZM864.722 292.468L838.539 333.121L741.387 184.981H767.57L838.539 295.225L853.009 271.798L781.35 160.176H695.912L838.539 378.596L977.722 160.176H948.094L865.411 291.09L864.722 292.468ZM710.381 617.687H686.954L826.137 397.889L674.552 160.865H644.924L796.509 398.578L641.479 643.181L723.473 642.491L1015.62 185.67H1040.42L877.124 441.986L979.099 601.839H1008.73L906.063 441.986L1085.9 160.865H1002.53L710.381 617.687ZM931.557 444.053L1043.87 617.687H965.319L863.344 462.657L747.589 642.491H777.216L864.033 508.132L951.539 642.491H1089.34L948.783 424.072L946.716 420.626L931.557 444.053ZM1181.33 159.487H1252.3V597.016H1226.8V184.292H1206.13V617.687H1432.82V551.541H1320.51V526.736H1457.62V642.491H1181.33V159.487ZM1275.03 159.487H1299.84V571.522H1410.77V597.016H1275.03V159.487Z" fill="url(#paint0_linear_5_31)"/>
<defs>
<linearGradient id="paint0_linear_5_31" x1="-1542.37" y1="159.487" x2="1457.63" y2="159.487" gradientUnits="userSpaceOnUse">
<stop stop-color="#8F5E25"/>
<stop offset="0.5" stop-color="#FBF4A1"/>
<stop offset="1" stop-color="#8F5E25"/>
</linearGradient>
</defs>
</svg>
